<?xml version="1.0" encoding="utf-8"?>
<!-- Generator: Adobe Illustrator 21.0.2, SVG Export Plug-In . SVG Version: 6.00 Build 0)  -->
<svg version="1.1" id="c802d59e-a218-48ae-ba65-77e1ffd527f8"
	 xmlns="http://www.w3.org/2000/svg" xmlns:xlink="http://www.w3.org/1999/xlink" x="0px" y="0px" viewBox="0 0 256 256"
	 style="enable-background:new 0 0 256 256;" xml:space="preserve">
<title>step--one</title>
<g id="_x34_4d5412f-1849-4c28-9bc2-22e363949c04">
	<path d="M224.8,117.8c-0.2,0-0.5-0.1-0.6-0.3c-0.9-1.4-1.9-2.9-2.9-4.4c-1.4-2.2-2.9-4.4-4.5-6.8
		c-0.2-0.3-0.1-0.8,0.2-1c0.3-0.2,0.8-0.1,1,0.2c1.6,2.4,3.1,4.7,4.5,6.8c0.8,1.3,1.6,2.5,2.5,3.7l5.7-3.6l-5.3-8.2
		c-4.8-7.4-2.4-11.9,1-18l-2.2-3.4l0,0c-7,0.6-12,1-16.9-6.4l-5.3-8.2l-5.6,3.8c0.9,1.4,1.8,2.7,2.7,4.2c1.3,2.1,2.7,4.2,4.2,6.5
		c0.2,0.3,0.1,0.8-0.2,1c-0.4,0.2-0.8,0.1-1-0.2c-1.5-2.3-2.8-4.4-4.2-6.5c-1.1-1.6-2.1-3.2-3.1-4.8c-0.2-0.3-0.1-0.8,0.2-1l6.9-4.6
		c0.2-0.1,0.4-0.2,0.6-0.1c0.2,0,0.4,0.2,0.5,0.3l5.8,8.8c4.4,6.6,8.8,6.2,15.5,5.7l0.5,0c0.3,0,0.5,0.1,0.7,0.3l2.7,4.1
		c0.2,0.2,0.2,0.5,0,0.8l-0.2,0.4c-3.2,5.9-5.4,9.8-1.1,16.5l5.7,8.8c0.1,0.2,0.1,0.4,0.1,0.6s-0.2,0.4-0.3,0.5l-7,4.4
		C225.1,117.7,225,117.8,224.8,117.8z"/>
	<path d="M63.1,253c-0.2,0-0.5-0.1-0.6-0.3c-0.5-0.6-0.9-1.3-1.4-1.9c-1.1-1.4-2.1-2.8-3.1-4.3
		c-1.6-2.4-3.1-4.7-4.7-7.1c-3.6-5.4-7.2-11-11.1-16.4c-1.4-1.6-3.4-2.6-5.6-2.7c-3.5,0.1-7.1,0.6-10.6,1.2c-1.5,0.2-3,0.5-4.5,0.6
		c-0.3,0-0.6-0.1-0.7-0.3c-0.4-0.6-0.8-1.1-1.1-1.7c-0.2-0.4-0.5-0.7-0.7-1.1c-0.2-0.3-0.2-0.7,0.1-0.9c0.1-0.1,0.2-0.2,0.3-0.3
		c0.9-1.7,2-3.5,3-5.1c2.3-3.7,4.8-7.6,4.7-11.2c-0.1-3.5-2.9-7.1-5.6-10.6c-1.2-1.5-2.3-3-3.3-4.6c-2.9-4.5-5.9-9-8.8-13.3
		l-2.8-4.3c-0.2-0.3-0.2-0.7,0.1-1c4.7-4.4,9.7-5.7,14.5-3.7c8.7,3.6,17.8,7.3,26.2,12.2c5.1,3,7.8,2.9,12-0.5
		c18.1-14.3,36.6-28.6,54.6-42.5c6.2-4.8,12.5-9.6,18.7-14.5c0.7-0.5,1.3-1.1,2.1-1.9c0.2-0.2,0.4-0.4,0.7-0.7
		c-2.8-4.9-5.6-9.8-8.4-14.7c-0.9-1.6-1.8-3.2-2.7-4.8l-0.6-1.1c-0.2-0.4-0.5-0.8-0.7-1.2l-0.8-1.4c-1.3-2.3-2.6-4.5-4-6.8l-2.9-4.9
		c-0.1-0.2-0.2-0.4-0.3-0.5c-0.1-0.2-0.2-0.3-0.3-0.4c-0.1-0.2-0.2-0.3-0.3-0.5L107,66.7c-0.2-0.4-0.5-0.8-0.7-1.2l-0.8-1.3
		c-0.5-0.9-1-1.7-1.5-2.6c-0.2-0.3-0.4-0.6-0.5-0.9c-0.2-0.3-0.4-0.6-0.5-0.9c-3-5.1-5.9-10.2-8.9-15.4c-2.3-4.1-4.7-8.1-7-12.2
		l-0.9-1.6c-0.3-0.5-0.6-1.1-0.9-1.6c-4.9-8.6-5.2-16.2-1.2-23.3c0.1-0.1,0.1-0.2,0.2-0.3c1.5-1,3.1-2,4.6-3
		c0.1-0.1,0.2-0.1,0.4-0.1c10.4-0.7,17.1,5.5,21.8,11c2.2,2.5,4.3,5.1,6.5,7.7c2.6,3,5.1,6.1,7.6,9.1c3.3,4,6.7,8.1,10,12.1l3.6,4.3
		c1.2,1.4,2.4,2.9,3.6,4.3c0.8,0.9,1.5,1.8,2.3,2.7c0.7,0.9,1.5,1.8,2.2,2.7c0.3,0.4,0.6,0.7,0.9,1.1c0.4,0.5,0.8,1,1.2,1.4
		c0.9,1.1,1.8,2.2,2.7,3.2c7.2,8.6,14.4,17.3,21.7,25.8c1.8,2.1,4.3,2.6,7.6,1.6c1.8-0.5,3.3-1,4.8-1.4c5.7-1.7,9.1-2.7,16.7-5.5
		c0.4-0.1,0.8,0.1,1,0.4c0.1,0.4-0.1,0.8-0.4,1c-7.6,2.8-11.1,3.9-16.8,5.6c-1.4,0.4-3,0.9-4.7,1.4c-3.9,1.2-7,0.5-9.2-2.1
		c-7.2-8.5-14.5-17.2-21.7-25.8c-0.9-1.1-1.8-2.1-2.7-3.2c-0.4-0.5-0.8-1-1.2-1.5c-0.3-0.3-0.6-0.7-0.9-1c-0.8-0.9-1.5-1.8-2.2-2.7
		c-0.8-0.9-1.5-1.8-2.3-2.7c-1.2-1.4-2.4-2.9-3.6-4.3l-3.6-4.3c-3.3-4.1-6.7-8.1-10-12.1c-2.5-3-5.1-6.1-7.6-9.1
		c-2.2-2.6-4.3-5.1-6.5-7.6C103.3,6.6,97,3.4,89.6,3.8c-1.4,1-2.9,1.9-4.3,2.8c-3.8,6.6-3.4,13.5,1.3,21.7l0.9,1.6
		c0.3,0.5,0.6,1.1,0.9,1.6c2.3,4,4.7,8.1,7,12.2c3,5.1,5.9,10.2,8.9,15.4c0.2,0.3,0.4,0.6,0.5,0.9c0.2,0.3,0.4,0.6,0.5,0.9
		c0.5,0.8,1,1.7,1.5,2.6l0.8,1.4c0.2,0.4,0.4,0.8,0.6,1.1l7.6,13.1c0.1,0.1,0.2,0.3,0.3,0.6c0.1,0.1,0.2,0.3,0.2,0.4
		c0.1,0.2,0.2,0.3,0.3,0.5l2.9,5c1.3,2.3,2.6,4.5,4,6.8l0.8,1.4c0.2,0.4,0.4,0.8,0.7,1.2l0.6,1.1c0.9,1.6,1.8,3.1,2.7,4.8
		c2.9,5,5.8,10.1,8.6,15.2c0.2,0.3,0.1,0.7-0.1,0.9c-0.4,0.4-0.7,0.7-1.1,1c-0.8,0.8-1.5,1.4-2.2,2c-6.2,4.8-12.5,9.6-18.7,14.5
		c-18,13.9-36.5,28.2-54.6,42.5c-5.2,4.2-8.9,3.5-13.7,0.6c-8.3-4.9-17.3-8.6-26-12.1c-4.2-1.7-8.3-0.7-12.5,3l2.5,3.7
		c2.9,4.4,5.9,8.9,8.8,13.4c0.9,1.5,2.1,3,3.3,4.5c2.8,3.7,5.8,7.5,5.9,11.4c0.1,4.1-2.4,8.1-4.9,12.1c-1,1.7-2.1,3.4-3,5.1
		c0,0,0,0.1-0.1,0.1c0,0,0,0,0,0.1c0.1,0.2,0.3,0.4,0.4,0.6c0.3,0.4,0.6,0.8,0.8,1.3c1.3-0.2,2.7-0.4,4-0.6
		c3.5-0.5,7.2-1.1,10.8-1.2c2.6,0.1,5.1,1.3,6.8,3.3c3.9,5.4,7.6,11.1,11.2,16.5c1.6,2.4,3.1,4.8,4.7,7.1c0.9,1.5,2,2.8,3,4.2
		c0.3,0.4,0.7,0.9,1,1.3c5-3.1,7.4-7,7.4-12c0-9.6-0.4-19.2-1.4-28.7c-0.5-4.6,0.1-7.7,5-10.3c14.2-7.7,28.5-15.6,42.3-23.3
		c7.4-4.1,14.9-8.3,22.4-12.4c4.3-2.3,8.6-4.7,12.8-7c2.9-1.5,5.7-3.1,8.6-4.7c0.3-0.2,0.7-0.1,1,0.2c1.4,1.8,2.7,3.4,3.9,5
		c1.3,1.7,2.6,3.4,3.9,5.1c0.5,0.6,0.9,1.2,1.4,1.8l0.8,1.1c0.4,0.5,0.7,1,1.1,1.5c1.1,1.5,2.2,3,3.3,4.5l0.7,0.9
		c0.2,0.3,0.4,0.5,0.5,0.7l0.2,0.3c0.8,1.1,1.7,2.2,2.5,3.3c2.2,2.9,4.4,5.8,6.5,8.7c0.3,0.3,0.5,0.7,0.8,1l1.3,1.8
		c1.1,1.4,2.2,2.9,3.2,4.3l4.6,6.2c0.2,0.2,0.3,0.4,0.5,0.6c0.1,0.1,0.2,0.3,0.3,0.4c0.7,1,1.4,1.9,2.2,2.9c0.6,0.8,1.2,1.6,1.8,2.3
		c1,1.4,2.1,2.8,3.1,4.1l1.2,1.6c2.7,3.6,5.4,7.3,8.2,10.9l8.5,11.2c5.5,7.3,11.5,10.6,18.8,10.4l1.3-0.9c1.6-1.1,3.2-2.1,4.8-3.2
		c2.6-6.9,1.8-14-2.8-23c-3-5.9-6-11.9-9.1-17.8c-2-4-4.1-8.1-6.2-12.1c-2.6-5-5.1-10.1-7.7-15.1c-2.3-4.4-4.5-8.9-6.8-13.3
		c-1.5-3-3.1-6-4.6-9c-2.8-5.4-5.6-10.8-8.3-16.1c-2.5-4.9-2.2-7.7,1.4-12.3c0.1-0.1,8.4-9.8,14.3-16c0.3-0.3,0.8-0.3,1.1,0
		c0.3,0.3,0.3,0.8,0,1.1c-5.8,6.2-14.1,15.9-14.2,16c-3.5,4.4-3.4,6.6-1.3,10.6c2.8,5.4,5.6,10.8,8.3,16.1c1.6,3,3.1,6,4.6,9
		c2.3,4.4,4.6,8.9,6.8,13.3c2.6,5,5.2,10.1,7.7,15.1c2.1,4,4.1,8.1,6.2,12.1c3,5.9,6.1,11.9,9.1,17.8c3.2,6.4,6.5,14.9,2.7,24.4
		c-0.1,0.1-0.2,0.3-0.3,0.4c-1.7,1.1-3.3,2.2-5,3.3l-1.5,1c-0.1,0.1-0.2,0.1-0.4,0.1c-7.9,0.3-14.3-3.2-20.2-11l-8.5-11.2
		c-2.8-3.6-5.5-7.3-8.2-10.9l-1.2-1.6c-1-1.4-2.1-2.8-3.1-4.2c-0.5-0.7-1.1-1.5-1.7-2.3c-0.7-1-1.5-1.9-2.2-2.9
		c-0.1-0.1-0.2-0.3-0.3-0.4c-0.1-0.2-0.3-0.4-0.4-0.6l-4.7-6.2c-1.1-1.4-2.1-2.9-3.2-4.3l-1.4-1.8c-0.2-0.3-0.5-0.7-0.7-1
		c-2.2-2.9-4.4-5.9-6.6-8.8c-0.8-1.1-1.6-2.2-2.5-3.3l-0.2-0.3c-0.2-0.3-0.4-0.5-0.6-0.8l-0.6-0.9c-1.1-1.5-2.3-3-3.3-4.5
		c-0.4-0.5-0.8-1-1.1-1.5l-0.8-1.1c-0.5-0.6-0.9-1.2-1.4-1.8c-1.3-1.7-2.6-3.3-3.9-5.1c-1.1-1.5-2.3-3-3.5-4.5
		c-2.7,1.5-5.4,2.9-8.1,4.4c-4.2,2.3-8.6,4.6-12.8,7c-7.5,4.1-14.9,8.3-22.4,12.4c-13.8,7.7-28.2,15.7-42.4,23.4
		c-3.8,2-4.8,4-4.2,8.8c0.9,9.6,1.4,19.3,1.4,28.9c0,5.7-2.9,10.3-8.7,13.6C63.4,253,63.3,253,63.1,253z"/>
</g>
<path d="M161.5,241.3c-6.9,0-13.8-0.9-20.5-2.8c-0.9-0.3-1.7-0.6-2.5-0.9c-3.6-1.5-3.4-7.4-3.4-7.5c0.1-1,0.2-2,0.2-3
	c0.2-2.7,0.4-5.4,0.9-8.1c2.1-12.4,7.3-24.3,14.9-34.3c5.5-7.2,11.9-13.6,19.1-19c0.3-0.2,0.8-0.2,1,0.1c0.2,0.3,0.2,0.8-0.1,1
	c-7.1,5.3-13.5,11.6-18.9,18.7c-7.5,9.8-12.6,21.4-14.6,33.6c-0.5,2.6-0.7,5.3-0.8,7.9c-0.1,1-0.1,2-0.2,3c0,0-0.1,5,2.4,6
	c0.7,0.3,1.5,0.6,2.3,0.8c12.7,3.5,26.1,3.7,38.9,0.3c11.7-2.9,22.5-8,32.2-15.2c0.3-0.2,0.8-0.2,1.1,0.1c0.2,0.3,0.2,0.8-0.1,1.1
	c-9.8,7.4-20.8,12.6-32.7,15.5C174.4,240.5,167.9,241.3,161.5,241.3z M138.3,235.1c-0.2,0-0.4-0.1-0.6-0.3c-0.3-0.3-0.2-0.8,0.1-1.1
	c0.9-0.7,1.9-1.5,2.8-2.2c0,0,0,0,0,0c0.2-0.7,0.3-1.4,0.5-2.1c0.3-1.5,0.7-3.1,1.2-4.6c3.9-11.2,10.4-21.8,19.9-32.3
	c5-5.5,10.6-10.7,16.5-15.2c0.3-0.3,0.8-0.2,1.1,0.1c0.3,0.3,0.2,0.8-0.1,1.1c-5.9,4.5-11.4,9.6-16.3,15
	c-9.4,10.3-15.8,20.7-19.6,31.7c-0.5,1.4-0.8,3-1.2,4.5c0,0.1,0,0.2-0.1,0.3c15.8-12.6,32-25,48.1-36.9c10.1-7.4,20.4-14.8,30.7-22
	c0.3-0.2,0.8-0.2,1,0.2c0.2,0.3,0.2,0.8-0.2,1c-10.3,7.2-20.6,14.6-30.6,22c-16.2,11.9-32.4,24.3-48.2,36.9c0.4,0,0.9,0.1,1.3,0.1
	c1.5,0.1,3,0.2,4.5,0.1c11.6-0.5,23.4-3.8,36-9.9c6.5-3.2,12.7-6.9,18.5-11.1c0.3-0.2,0.8-0.2,1,0.2c0.2,0.3,0.2,0.8-0.2,1
	c-5.9,4.3-12.2,8.1-18.7,11.3c-12.7,6.2-24.7,9.5-36.6,10.1c-1.6,0.1-3.1,0-4.7-0.1c-0.8-0.1-1.5-0.1-2.3-0.1
	c-0.2,0-0.4-0.1-0.5-0.2c-1,0.8-2,1.6-3,2.4C138.7,235,138.5,235.1,138.3,235.1z"/>
<path d="M69.4,103.7c-8.6,0-17.2-1.5-25.4-4.4c-0.8-0.3-1.6-0.6-2.4-1c-2.9-1.4-3-5.8-2.8-7.6c0,0,0-0.1,0-0.1
	c0.1-1,0.3-1.9,0.4-2.9c0.4-2.6,0.7-5.4,1.4-8c2.9-12.2,8.9-23.7,17.2-33.2c7.3-8.3,15.8-15.3,25.4-20.7c0.4-0.2,0.8-0.1,1,0.3
	c0.2,0.4,0.1,0.8-0.3,1c-9.5,5.3-17.9,12.2-25,20.4C50.7,56.8,44.9,68,42.1,80c-0.6,2.6-1,5.3-1.4,7.9c-0.1,1-0.3,1.9-0.4,2.9
	c0,0,0,0,0,0c-0.1,1.2-0.1,5.1,2,6.1c0.7,0.4,1.5,0.7,2.3,1c12.4,4.4,25.8,5.4,38.8,3c12.7-2.2,24.4-7,35-14.3
	c0.3-0.2,0.8-0.1,1,0.2c0.2,0.3,0.1,0.8-0.2,1c-10.8,7.4-22.7,12.3-35.6,14.5C78.9,103.3,74.2,103.7,69.4,103.7z M41.6,95.8
	c-0.2,0-0.5-0.1-0.6-0.3c-0.2-0.3-0.2-0.8,0.2-1c0.9-0.6,1.9-1.3,3-2.1c0,0,0,0,0,0c0.2-0.7,0.4-1.5,0.7-2.2c0.4-1.5,0.9-3,1.5-4.4
	c4.6-11,11.8-21.1,22-30.9c6.6-6.4,14-12,21.8-16.8c0.4-0.2,0.8-0.1,1,0.2c0.2,0.4,0.1,0.8-0.2,1c-7.8,4.7-15,10.3-21.6,16.7
	c-10.1,9.7-17.2,19.6-21.7,30.4c-0.6,1.4-1,2.8-1.4,4.2c0,0.1-0.1,0.3-0.1,0.4c20.6-14,61.5-40.2,84-54.4c0.3-0.2,0.8-0.1,1,0.2
	c0.2,0.4,0.1,0.8-0.2,1c-22.5,14.2-63.6,40.4-84.1,54.4c0.4,0.1,0.8,0.1,1.2,0.2c1.5,0.2,3,0.4,4.5,0.4c11.7,0.2,23.7-2.3,36.6-7.5
	c7.6-3.1,14.9-7,21.8-11.5c0.3-0.2,0.8-0.1,1,0.2c0.2,0.3,0.1,0.8-0.2,1c-6.9,4.6-14.3,8.5-22,11.7c-13.1,5.4-25.2,7.8-37.2,7.6
	c-1.6,0-3.2-0.2-4.7-0.5c-0.7-0.1-1.5-0.2-2.2-0.3c-0.2,0-0.4-0.1-0.5-0.2c-1.1,0.8-2.2,1.5-3.2,2.2C41.9,95.7,41.8,95.8,41.6,95.8z
	"/>
<path d="M107.5,67.1c-0.3,0-0.5-0.1-0.6-0.4c-0.2-0.4-0.1-0.8,0.2-1L137.8,47c0.4-0.2,0.8-0.1,1,0.2
	c0.2,0.4,0.1,0.8-0.2,1L107.9,67C107.8,67.1,107.7,67.1,107.5,67.1z"/>
<path d="M185.8,185.1c-0.2,0-0.5-0.1-0.6-0.4c-0.2-0.4-0.1-0.8,0.2-1l31.2-19.6c0.4-0.2,0.8-0.1,1,0.2
	c0.2,0.4,0.1,0.8-0.2,1l-31.2,19.6C186.1,185,185.9,185.1,185.8,185.1z"/>
</svg>
