<?xml version="1.0" encoding="utf-8"?>
<!-- Generator: Adobe Illustrator 16.0.0, SVG Export Plug-In . SVG Version: 6.00 Build 0)  -->
<!DOCTYPE svg PUBLIC "-//W3C//DTD SVG 1.1//EN" "http://www.w3.org/Graphics/SVG/1.1/DTD/svg11.dtd">
<svg version="1.1" id="Layer_1" xmlns="http://www.w3.org/2000/svg" xmlns:xlink="http://www.w3.org/1999/xlink" x="0px" y="0px"
	 width="300px" height="270px" viewBox="0 0 300 270" enable-background="new 0 0 300 270" xml:space="preserve">
<g>
	<path d="M50.68,52.493L38.273,64.891H0V0.487h38.273L50.68,12.878V52.493 M38.273,47.355V18.023l-5.125-5.145H12.402v39.615h20.746
		L38.273,47.355z"/>
	<path d="M104.119,167.33H91.361l-3.442-12.406H68.722l-3.41,12.406H52.565l17.969-64.411h15.604L104.119,167.33 M84.45,142.517
		l-6.102-22.359l-6.154,22.359H84.45z"/>
	<polyline points="247.771,167.319 235.361,167.319 235.361,125.719 219.493,167.319 207.84,167.319 192.088,125.719
		192.088,167.319 179.697,167.319 179.697,102.915 196.596,102.915 213.641,147.828 230.833,102.915 247.771,102.915
		247.771,167.319 	"/>
	<polyline points="179.296,0.487 156.105,41.036 156.105,64.891 143.713,64.891 143.713,41.036 120.244,0.487 134.548,0.487
		149.902,26.803 165.023,0.487 179.296,0.487 	"/>
	<polyline points="299.39,64.907 286.999,64.907 262.202,22.534 262.202,64.907 249.814,64.907 249.814,0.487 263.314,0.618
		286.999,40.094 286.999,0.487 299.39,0.487 299.39,64.907 	"/>
	<path d="M175.328,258.243L162.435,270h-25.847l-12.384-11.757v-40.236l12.384-12.407h26.338l12.402,12.407V258.243
		 M162.926,253.141v-30.009l-5.122-5.125H141.74l-5.152,5.125v29.982l5.152,5.129h16.237L162.926,253.141z"/>
</g>
</svg>
